<svg width="305" height="305" viewBox="0 0 305 305" fill="none" xmlns="http://www.w3.org/2000/svg">
<mask id="mask0_2001_3132" style="mask-type:alpha" maskUnits="userSpaceOnUse" x="0" y="0" width="305" height="305">
<circle cx="152.5" cy="152.5" r="152.5" fill="#FF0000"/>
</mask>
<g mask="url(#mask0_2001_3132)">
<circle cx="152.5" cy="152.5" r="152.5" fill="#FF0000"/>
<path d="M45.0005 261L61.1616 266.37C65.764 270.595 78.3449 281.01 93.7955 287.546" stroke="white"/>
<path d="M34.0005 251C42.7739 254.319 60.6906 262.051 63.3566 265.085C66.0227 268.12 83.5991 276.865 91.2297 280.844" stroke="white"/>
<path d="M22.0005 232C27.3896 245.908 47.9381 274.848 91.1163 290.915" stroke="white"/>
<path d="M21.9661 230.864C24.257 233.478 30.1109 237.305 35.5567 230.368" stroke="white"/>
<path d="M2.89783 215.777C7.28494 216.954 8.53779 229.512 7.19454 234.53L0.121814 222.28C-1.88537 218.808 -1.48928 214.6 2.89783 215.777Z" stroke="white"/>
<path d="M33.7274 205.072C32.13 207.602 27.8311 212.661 23.4146 212.66" stroke="white"/>
<path d="M15.0005 212L14.7419 212.966" stroke="white"/>
<path d="M36.0005 133C40.3411 152.084 42.5549 192.996 31.094 209.335" stroke="white"/>
<path d="M-67.6525 260.415L8.1799 236.234C10.7956 235.451 16.5325 234.18 20.5461 236.444C23.7999 242.266 33.7187 254.609 38.3649 258.824C43.0111 263.039 58.064 280.81 85.6083 291.166C91.367 291.226 98.262 285.699 91.6091 280.352C84.9561 275.004 51.5009 244.785 35.6882 230.152C33.1634 227 28.5316 218.215 31.2014 208.242" stroke="white"/>
<path d="M-67.6525 260.415L8.1799 236.234C10.7956 235.451 16.5325 234.18 20.5461 236.444C23.7999 242.266 33.7187 254.609 38.3649 258.824C43.0111 263.039 58.064 280.81 85.6083 291.166C91.367 291.226 98.262 285.699 91.6091 280.352C84.9561 275.004 51.5009 244.785 35.6882 230.152C33.1634 227 28.5316 218.215 31.2014 208.242" stroke="white"/>
<path d="M31.2411 208.988C34.3547 206.362 41.2753 195.618 44.1553 176.215C47.0352 156.812 46.8064 144.645 46.445 140.592C43.3846 135.815 36.5945 127.572 33.44 135.033L14.943 211.864M7.33761 217.072C1.41069 213.999 -15.3186 210.946 -33.5027 222.684L-72.944 246.272C-75.2022 251.106 -76.8422 261.06 -67.6129 261.161" stroke="white"/>
<path d="M3.74759 216.097C-5.37425 212.159 -61.9035 240.867 -72.6705 246.333" stroke="white"/>
<path d="M2.00049 216L7.79568 217.554" stroke="white"/>
<circle cx="10" cy="10" r="10" transform="matrix(0.965865 0.259045 -0.258592 0.965987 12.0005 210)" stroke="white"/>
<ellipse cx="4" cy="4.5" rx="4" ry="4.5" transform="matrix(0.965865 0.259045 -0.258592 0.965987 16.0005 217)" stroke="white"/>
<circle cx="1.5" cy="1.5" r="1.5" transform="matrix(0.965865 0.259045 -0.258592 0.965987 23.0005 224)" stroke="white"/>
<circle cx="1.5" cy="1.5" r="1.5" transform="matrix(0.965865 0.259045 -0.258592 0.965987 20.0005 215)" stroke="white"/>
<circle cx="1.5" cy="1.5" r="1.5" transform="matrix(0.965865 0.259045 -0.258592 0.965987 12.0005 221)" stroke="white"/>
<path d="M7.23236 217.847C8.15275 218.238 9.65464 219.834 10.7616 217.173" stroke="white"/>
<path d="M167 146L181.222 155.366C184.574 160.637 194.032 173.949 207.265 184.258" stroke="white"/>
<path d="M160 134C167.616 139.475 182.923 151.576 184.713 155.196C186.503 158.816 201.218 171.808 207.56 177.624" stroke="white"/>
<path d="M153 112C154.604 126.826 166.961 160.09 204.514 186.775" stroke="white"/>
<path d="M154 111.464C155.536 114.581 160.201 119.791 167.258 114.5" stroke="white"/>
<path d="M138.598 91.5001C142.532 93.7711 140.489 106.224 137.892 110.722L134.232 97.0622C133.192 93.1901 134.664 89.229 138.598 91.5001Z" stroke="white"/>
<path d="M170.928 89C168.73 91.0299 163.266 94.8038 159 93.6603" stroke="white"/>
<path d="M151 91L150.5 91.866" stroke="white"/>
<path d="M192 20C191.251 39.5528 182.794 79.6369 167.49 92.4519" stroke="white"/>
<path d="M59 116.818L138.524 113.079C141.254 112.999 147.125 113.256 150.416 116.481C152.052 122.944 158.438 137.43 161.835 142.703C165.232 147.976 175.172 169.031 199.1 186.158C204.648 187.705 212.741 184.151 207.698 177.265C202.656 170.38 178.161 132.543 166.674 114.321C165.051 110.624 162.852 100.941 168.014 92" stroke="white"/>
<path d="M59 116.818L138.524 113.079C141.254 112.999 147.125 113.256 150.416 116.481C152.052 122.944 158.438 137.43 161.835 142.703C165.232 147.976 175.172 169.031 199.1 186.158C204.648 187.705 212.741 184.151 207.698 177.265C202.656 170.38 178.161 132.543 166.674 114.321C165.051 110.624 162.852 100.941 168.014 92" stroke="white"/>
<path d="M167.808 92.318C171.496 90.5869 180.965 82.0007 188.772 64.0071C196.58 46.0136 199.51 34.2038 200.21 30.1962C198.491 24.7915 194.066 15.0742 189.086 21.4642L151.318 90.8802M142.622 93.9424C137.692 89.4415 122.32 82.1662 101.713 88.7988L57.4999 101.378C54.0664 105.462 49.9041 114.65 58.7942 117.136" stroke="white"/>
<path d="M139.158 92C131.365 85.838 69.3177 98.9411 57.5001 101.435" stroke="white"/>
<path d="M138 91L143.196 94" stroke="white"/>
<circle cx="152.66" cy="101.66" r="10" transform="rotate(30 152.66 101.66)" stroke="white"/>
<ellipse cx="152.214" cy="101.897" rx="4" ry="4.5" transform="rotate(30 152.214 101.897)" stroke="white"/>
<circle cx="156.549" cy="107.049" r="1.5" transform="rotate(30 156.549 107.049)" stroke="white"/>
<circle cx="155.549" cy="97.049" r="1.5" transform="rotate(30 155.549 97.049)" stroke="white"/>
<circle cx="146.549" cy="101.049" r="1.5" transform="rotate(30 146.549 101.049)" stroke="white"/>
<path d="M142.78 94.5846C143.568 95.2003 144.605 97.1309 146.364 94.8472" stroke="white"/>
<path d="M150 226L134.778 218.366C128.537 218.099 112.28 216.565 96.7351 210.258" stroke="white"/>
<path d="M165 226C156.579 222.216 138.271 214.91 134.288 215.196C130.304 215.483 112.399 209.641 104.307 207.124" stroke="white"/>
<path d="M187 220C173.606 225.81 139.199 231.405 97.8524 212.409" stroke="white"/>
<path d="M187 220.464C183.725 220.803 177.324 219.624 178.608 211" stroke="white"/>
<path d="M211.402 223.5C207.468 221.229 197.705 229.224 195.108 233.722L208.768 230.062C212.641 229.027 215.336 225.771 211.402 223.5Z" stroke="white"/>
<path d="M198.072 194C197.414 196.919 196.877 203.537 200 206.66" stroke="white"/>
<path d="M206 212L205.5 212.866" stroke="white"/>
<path d="M247 142C230.557 152.225 200.331 179.141 197.01 198.586" stroke="white"/>
<path d="M229.5 303.952L193.343 234.579C192.062 232.205 187.968 226.704 183.584 225.481C177.25 227.27 162.219 229.507 156.032 229.203C149.845 228.899 127.599 230.304 101.133 218.292C97.0685 214.311 95.6562 206.35 104.035 207.265C112.413 208.181 156.936 209.987 178.192 210.821C182.155 210.385 191.758 207.324 196.852 198.5" stroke="white"/>
<path d="M229.5 303.952L193.343 234.579C192.062 232.205 187.968 226.704 183.584 225.481C177.25 227.27 162.219 229.507 156.032 229.203C149.845 228.899 127.599 230.304 101.133 218.292C97.0685 214.311 95.6562 206.35 104.035 207.265C112.413 208.181 156.936 209.987 178.192 210.821C182.155 210.385 191.758 207.324 196.852 198.5" stroke="white"/>
<path d="M196.558 197.952C196.223 193.924 198.499 182.166 210.094 166.507C221.689 150.848 231.061 141.426 234.156 138.83C239.646 137.617 248.942 137.008 245.914 144.464L206.048 211.514M207.745 220.576C214.044 222.57 227.306 231.937 231.787 252.933L243 297.512C241.189 302.492 235.23 310.667 228.706 304.27" stroke="white"/>
<path d="M210.709 222.5C219.798 226.119 239.287 285.298 243.001 296.569" stroke="white"/>
<path d="M212 224L206.804 221" stroke="white"/>
<ellipse cx="9.5" cy="10" rx="9.5" ry="10" transform="matrix(-0.866025 -0.5 -0.5 0.866025 209 212)" stroke="white"/>
<ellipse cx="4" cy="4.5" rx="4" ry="4.5" transform="matrix(-0.866025 -0.5 -0.5 0.866025 202 214)" stroke="white"/>
<circle cx="1.5" cy="1.5" r="1.5" transform="matrix(-0.866025 -0.5 -0.5 0.866025 191 215)" stroke="white"/>
<circle cx="1.5" cy="1.5" r="1.5" transform="matrix(-0.866025 -0.5 -0.5 0.866025 201 210)" stroke="white"/>
<circle cx="1.5" cy="1.5" r="1.5" transform="matrix(-0.866025 -0.5 -0.5 0.866025 201 221)" stroke="white"/>
<path d="M207.237 220.849C206.31 220.475 204.118 220.542 205.218 217.878" stroke="white"/>
<path d="M102 335C93.5792 331.216 75.2713 323.91 71.2877 324.196C67.304 324.483 49.3994 318.641 41.3069 316.124" stroke="white"/>
<path d="M124 329C110.606 334.81 76.1989 340.405 34.8524 321.409" stroke="white"/>
<path d="M135.072 303C134.414 305.919 133.877 312.537 137 315.66" stroke="white"/>
<path d="M184 251C167.557 261.225 137.331 288.141 134.01 307.586" stroke="white"/>
<path d="M166.5 412.952L130.343 343.579C129.062 341.205 124.968 335.704 120.584 334.481C114.25 336.27 99.2186 338.507 93.0319 338.203C86.8452 337.899 64.5986 339.304 38.1326 327.292C34.0685 323.311 32.6562 315.35 41.0345 316.265C49.4129 317.181 93.9364 318.987 115.192 319.821C119.155 319.385 128.758 316.324 133.852 307.5" stroke="white"/>
<path d="M166.5 412.952L130.343 343.579C129.062 341.205 124.968 335.704 120.584 334.481C114.25 336.27 99.2186 338.507 93.0319 338.203C86.8452 337.899 64.5986 339.304 38.1326 327.292C34.0685 323.311 32.6562 315.35 41.0345 316.265C49.4129 317.181 93.9364 318.987 115.192 319.821C119.155 319.385 128.758 316.324 133.852 307.5" stroke="white"/>
<path d="M133.558 306.952C133.223 302.924 135.499 291.166 147.094 275.507C158.689 259.848 168.061 250.426 171.156 247.83C176.646 246.617 185.942 246.008 182.914 253.464L143.048 320.514M144.745 329.576C151.044 331.57 164.306 340.937 168.787 361.933L180 406.512C178.189 411.492 172.23 419.667 165.706 413.27" stroke="white"/>
</g>
</svg>
