<svg width="306" height="305" viewBox="0 0 306 305" fill="none" xmlns="http://www.w3.org/2000/svg">
<mask id="mask0_2001_3504" style="mask-type:alpha" maskUnits="userSpaceOnUse" x="0" y="0" width="306" height="305">
<circle cx="152.845" cy="152.5" r="152.5" fill="#FF0000"/>
</mask>
<g mask="url(#mask0_2001_3504)">
<circle cx="152.845" cy="152.5" r="152.5" fill="#FF0000"/>
<path d="M176.345 166C175.345 166 172.945 165.4 171.345 163" stroke="white"/>
<path d="M155.345 205L152.345 202L146.345 209L151.345 215L153.345 213" stroke="white"/>
<path d="M156.345 204L154.345 202" stroke="white"/>
<path d="M158.345 202L156.345 200" stroke="white"/>
<path d="M159.345 200L157.345 198" stroke="white"/>
<path d="M166.345 191L163.345 188L169.345 181L174.345 182" stroke="white"/>
<path d="M162.345 196L159.345 193L162.345 190L164.345 193" stroke="white"/>
<path d="M184.342 198.884C184.698 199.775 184.704 201.595 182.455 200.997" stroke="white"/>
<path d="M186.342 196.884C186.698 197.775 186.704 199.595 184.455 198.997" stroke="white"/>
<path d="M185.551 196.532L181.339 192.769L177.564 196.994L181.776 200.757" stroke="white"/>
<path d="M195.345 200L174.345 182L150.345 210L172.345 229" stroke="white"/>
<path d="M159.345 200L163.345 203L158.345 210L155.345 208L159.345 204L158.345 202" stroke="white"/>
<path d="M166.354 190.871L170.255 193.945L175.742 187.247L173.058 184.875L170.21 189.808L168.03 189.372" stroke="white"/>
<path d="M162.345 200L167.345 195" stroke="white"/>
<path d="M169.344 215.938C169.678 216.838 169.637 218.658 167.403 217.999" stroke="white"/>
<path d="M171.344 213.938C171.678 214.838 171.637 216.658 169.403 215.999" stroke="white"/>
<path d="M171.458 212.752L167.343 208.877L163.462 212.998L167.576 216.873" stroke="white"/>
<path d="M147.333 111.584L140.795 119.987L155.558 133.132L155.502 132.134L160.212 126.844L153.885 121.211L154.771 119.154L147.333 111.584Z" stroke="white"/>
<path d="M146.345 114L152.345 120L147.345 126" stroke="white"/>
<path d="M144.345 116L148.345 119L145.345 123" stroke="white"/>
<path d="M79.3452 80L76.3452 83" stroke="white"/>
<path d="M76.3452 84L73.3452 87" stroke="white"/>
<path d="M71.3452 88L68.3452 91L71.3452 94" stroke="white"/>
<path d="M86.3452 104L82.3452 100L92.3452 90L96.3452 94L86.3452 104Z" stroke="white"/>
<path d="M91.3452 91C90.3452 90.6667 88.3452 89.8 88.3452 89" stroke="white"/>
<path d="M93.8595 96.2831C94.789 96.761 96.7875 97.5735 97.3452 97" stroke="white"/>
<path d="M91.8595 98.2831C92.789 98.761 94.7875 99.5735 95.3452 99" stroke="white"/>
<path d="M89.8595 100.283C90.789 100.761 92.7875 101.574 93.3452 101" stroke="white"/>
<path d="M87.8595 102.283C88.789 102.761 90.7875 103.574 91.3452 103" stroke="white"/>
<path d="M86.8595 103.283C87.789 103.761 89.7875 104.574 90.3452 104" stroke="white"/>
<path d="M89.3452 93C88.3452 92.6667 86.3452 91.8 86.3452 91" stroke="white"/>
<path d="M88.3452 95C87.3452 94.6667 85.3452 93.8 85.3452 93" stroke="white"/>
<path d="M86.3452 97C85.3452 96.6667 83.3452 95.8 83.3452 95" stroke="white"/>
<path d="M84.3452 99C83.3452 98.6667 81.3452 97.8 81.3452 97" stroke="white"/>
<path d="M87.3452 72L90.3452 68L92.3452 70L95.3452 67L110.345 81V84L114.345 88L110.345 91L107.345 88L105.345 90L109.345 93L105.345 97L101.345 93L98.3452 92L88.3452 85L87.3452 82L82.3452 77L86.3452 74L87.3452 75L89.3452 74" stroke="white"/>
<path d="M85.3452 77L98.8037 88.4529L94.7288 86.6199L87.5783 82.9126L87.5392 81.9134" stroke="white"/>
<path d="M97.3452 89.0001C99.1914 90.2786 102.607 91.6026 103.345 87.0001C104.576 87.0001 107.084 86.0685 106.345 83.0001C105.607 79.9317 108.114 79.6805 109.345 80.0001" stroke="white"/>
<circle cx="21.8452" cy="155.5" r="6.5" stroke="white"/>
<circle cx="134.845" cy="247.5" r="6.5" stroke="white"/>
<path d="M232.345 139C232.345 142.59 229.935 145 226.345 145C222.755 145 219.345 142.59 219.345 139C219.345 135.41 222.755 132 226.345 132C229.935 132 232.345 135.41 232.345 139Z" stroke="white"/>
<ellipse cx="114.345" cy="51.5" rx="8" ry="8.5" stroke="white"/>
<circle cx="114.845" cy="52.5" r="6.5" stroke="white"/>
<ellipse cx="22.3452" cy="153.5" rx="8" ry="8.5" stroke="white"/>
<ellipse cx="134.345" cy="245.5" rx="8" ry="8.5" stroke="white"/>
<ellipse cx="225.345" cy="137.5" rx="8" ry="8.5" stroke="white"/>
<path d="M206.345 146L207.345 161C204.679 155.375 201.123 152.875 199.345 151C197.923 149.5 193.419 146.938 191.345 146H206.345Z" stroke="white"/>
<rect width="46" height="46" rx="1" transform="matrix(0.743522 0.668712 -0.647842 0.761774 121.345 114)" stroke="white"/>
<rect width="44" height="43" rx="1" transform="matrix(0.743522 0.668712 -0.647842 0.761774 121.345 114)" stroke="white"/>
<rect width="7" height="16" rx="1" transform="matrix(0.743522 0.668712 -0.647842 0.761774 134.345 75)" stroke="white"/>
<rect width="7" height="16" rx="1" transform="matrix(0.743522 0.668712 -0.647842 0.761774 144.345 82)" stroke="white"/>
<rect width="7" height="16" rx="1" transform="matrix(0.743522 0.668712 -0.647842 0.761774 153.345 89)" stroke="white"/>
<rect width="7" height="16" rx="1" transform="matrix(0.743522 0.668712 -0.647842 0.761774 162.345 97)" stroke="white"/>
<rect width="7" height="16" rx="1" transform="matrix(0.743522 0.668712 -0.647842 0.761774 171.345 104)" stroke="white"/>
<rect width="7" height="16" rx="1" transform="matrix(0.743522 0.668712 -0.647842 0.761774 182.345 112)" stroke="white"/>
<rect width="7" height="16" rx="1" transform="matrix(0.743522 0.668712 -0.647842 0.761774 191.345 119)" stroke="white"/>
<rect width="10" height="5" rx="1" transform="matrix(0.743522 0.668712 -0.647842 0.761774 161.345 139)" stroke="white"/>
<rect width="15" height="7" rx="1" transform="matrix(0.743522 0.668712 -0.647842 0.761774 183.345 145)" stroke="white"/>
<rect width="12" height="7" rx="1" transform="matrix(0.67293 -0.739706 0.720636 0.693314 175.345 166)" stroke="white"/>
<rect width="3" height="4" rx="0.2" transform="matrix(0.67293 -0.739706 -0.720636 -0.693314 180.345 161)" stroke="white"/>
<rect width="6" height="13" rx="1" transform="matrix(0.743522 0.668712 -0.647842 0.761774 200.345 162)" stroke="white"/>
<rect width="6" height="13" rx="1" transform="matrix(0.743522 0.668712 -0.647842 0.761774 189.345 175)" stroke="white"/>
<rect width="7" height="5" rx="1" transform="matrix(0.743522 0.668712 -0.647842 0.761774 186.345 148)" stroke="white"/>
<rect width="15" height="7" rx="1" transform="matrix(0.743522 0.668712 -0.647842 0.761774 167.345 164)" stroke="white"/>
<rect width="7" height="5" rx="1" transform="matrix(0.743522 0.668712 -0.647842 0.761774 170.345 167)" stroke="white"/>
<rect width="3" height="5" rx="1" transform="matrix(0.743522 0.668712 -0.647842 0.761774 163.345 141)" stroke="white"/>
<rect width="7" height="16" rx="1" transform="matrix(0.743522 0.668712 -0.647842 0.761774 117.345 200)" stroke="white"/>
<rect width="7" height="16" rx="1" transform="matrix(0.743522 0.668712 -0.647842 0.761774 128.345 207)" stroke="white"/>
<rect width="7" height="16" rx="1" transform="matrix(0.743522 0.668712 -0.647842 0.761774 108.345 192)" stroke="white"/>
<rect width="7" height="16" rx="1" transform="matrix(0.743522 0.668712 -0.647842 0.761774 99.3452 185)" stroke="white"/>
<rect width="7" height="16" rx="1" transform="matrix(0.743522 0.668712 -0.647842 0.761774 89.3452 177)" stroke="white"/>
<rect width="7" height="16" rx="1" transform="matrix(0.743522 0.668712 -0.647842 0.761774 80.3452 170)" stroke="white"/>
<rect width="7" height="16" rx="1" transform="matrix(0.743522 0.668712 -0.647842 0.761774 71.3452 162)" stroke="white"/>
<rect width="7" height="16" rx="1" transform="matrix(0.743522 0.668712 -0.647842 0.761774 62.3452 155)" stroke="white"/>
<rect width="20" height="19" rx="1" transform="matrix(0.748067 0.663623 -0.64267 0.766143 63.3452 111)" stroke="white"/>
<rect width="11" height="16" rx="1" transform="matrix(0.743522 0.668712 -0.647842 0.761774 50.3452 144)" stroke="white"/>
<rect width="10" height="13" rx="1" transform="matrix(0.743522 0.668712 -0.647842 0.761774 200.345 127)" stroke="white"/>
<rect width="10" height="13" rx="1" transform="matrix(0.743522 0.668712 -0.647842 0.761774 122.345 67)" stroke="white"/>
<rect width="5" height="9" rx="1" transform="matrix(0.743522 0.668712 -0.647842 0.761774 80.3452 106)" stroke="white"/>
<rect width="5" height="14" rx="1" transform="matrix(0.743522 0.668712 -0.647842 0.761774 98.3452 110)" stroke="white"/>
<rect width="5" height="10" rx="1" transform="matrix(0.743522 0.668712 -0.647842 0.761774 87.3452 123)" stroke="white"/>
<rect width="5" height="10" rx="1" transform="matrix(0.743522 0.668712 -0.647842 0.761774 89.3452 131)" stroke="white"/>
<rect width="10" height="6" rx="1" transform="matrix(0.743522 0.668712 -0.647842 0.761774 82.3452 147)" stroke="white"/>
<rect width="10" height="6" rx="1" transform="matrix(0.743522 0.668712 -0.647842 0.761774 123.345 181)" stroke="white"/>
<rect width="10" height="23" rx="1" transform="matrix(0.743522 0.668712 -0.647842 0.761774 156.345 176)" stroke="white"/>
<rect width="10" height="13" rx="1" transform="matrix(0.743522 0.668712 -0.647842 0.761774 153.345 179)" stroke="white"/>
<rect width="10" height="4" rx="1" transform="matrix(0.743522 0.668712 -0.647842 0.761774 150.345 183)" stroke="white"/>
<rect width="7" height="4" rx="1" transform="matrix(0.743522 0.668712 -0.647842 0.761774 125.345 183)" stroke="white"/>
<rect width="7" height="4" rx="1" transform="matrix(0.743522 0.668712 -0.647842 0.761774 84.3452 149)" stroke="white"/>
<rect width="5" height="10" rx="1" transform="matrix(0.743522 0.668712 -0.647842 0.761774 109.345 99)" stroke="white"/>
<rect width="5" height="10" rx="1" transform="matrix(-0.631683 0.775227 -0.757536 -0.652794 125.345 109)" stroke="white"/>
<rect width="5" height="9" rx="1" transform="matrix(0.743522 0.668712 -0.647842 0.761774 74.3452 102)" stroke="white"/>
<rect width="5" height="9" rx="1" transform="matrix(0.743522 0.668712 -0.647842 0.761774 69.3452 99)" stroke="white"/>
<rect width="5" height="9" rx="1" transform="matrix(0.743522 0.668712 -0.647842 0.761774 47.3452 116)" stroke="white"/>
<rect width="5" height="13" rx="1" transform="matrix(0.743522 0.668712 -0.647842 0.761774 66.3452 92)" stroke="white"/>
<rect width="5" height="6" rx="1" transform="matrix(0.743522 0.668712 -0.647842 0.761774 64.3452 95)" stroke="white"/>
<path d="M95.3452 71L89.3452 78L91.3452 79C91.3452 82.7647 93.8746 84 95.3452 84L98.3452 87L104.345 80L101.345 78C101.345 74.2353 98.8158 73 97.3452 73L95.3452 71Z" stroke="white"/>
<path d="M197.345 123L141.345 80.0001C139.223 78.4405 134.529 74.4971 132.345 73.0001C130.162 71.503 128.648 67.1833 128.345 65.0001V54.0001C129.073 51.0059 126.165 45.1831 124.345 43.0001C118.522 37.7603 111.771 40.4406 109.345 42.0001L98.3452 53.0001L11.3452 148C4.97624 158.292 15.0711 172.882 25.3452 170C35.3529 167.193 46.796 168.193 51.3452 171C52.4483 171.681 92.3284 204.094 112.345 220C114.298 221.552 118.526 227.193 120.345 230C118.889 232.246 120.435 244.074 121.345 250C129.352 268.713 141.189 261.238 146.345 255L169.345 227L172.345 229L173.345 224H176.345L181.345 218V215H184.345L190.345 208V204L195.345 200V197L237.345 145C242.804 129.094 230.993 123.129 217.345 125C206.427 126.497 199.771 124.248 197.345 123Z" stroke="white"/>
<path d="M155.345 245C151.363 249.963 141.961 259.745 135.345 259C128.729 258.255 123.183 252.792 121.345 250" stroke="white"/>
<path d="M10.3452 160C15.7899 164.662 20.4205 167.019 29.3452 166C37.5123 165.068 46.6229 164.135 49.3452 166L112.345 217C115.068 218.865 121.797 226.016 120.345 229" stroke="white"/>
<circle cx="126.845" cy="167.5" r="3.5" stroke="white"/>
<ellipse cx="119.845" cy="122" rx="2.5" ry="3" stroke="white"/>
<circle cx="131.345" cy="107" r="1" stroke="white"/>
<circle cx="118.345" cy="90" r="1" stroke="white"/>
<circle cx="95.3452" cy="62" r="1" stroke="white"/>
<circle cx="57.3452" cy="111" r="1" stroke="white"/>
<circle cx="53.3452" cy="115" r="1" stroke="white"/>
<circle cx="69.3452" cy="141" r="1" stroke="white"/>
<circle cx="75.3452" cy="141" r="1" stroke="white"/>
<circle cx="51.3452" cy="150" r="1" stroke="white"/>
<circle cx="46.3452" cy="156" r="1" stroke="white"/>
<circle cx="82.3452" cy="118" r="1" stroke="white"/>
<circle cx="86.3452" cy="115" r="1" stroke="white"/>
<circle cx="89.3452" cy="111" r="1" stroke="white"/>
<circle cx="175.345" cy="148" r="1" stroke="white"/>
<circle cx="173.345" cy="150" r="1" stroke="white"/>
<circle cx="162.345" cy="128" r="1" stroke="white"/>
<circle cx="168.345" cy="156" r="1" stroke="white"/>
<circle cx="164.345" cy="160" r="1" stroke="white"/>
<circle cx="160.345" cy="169" r="1" stroke="white"/>
<circle cx="157.345" cy="169" r="1" stroke="white"/>
<circle cx="149.345" cy="171" r="1" stroke="white"/>
<circle cx="147.345" cy="175" r="1" stroke="white"/>
<circle cx="146.345" cy="178" r="1" stroke="white"/>
<circle cx="180.345" cy="176" r="1" stroke="white"/>
<circle cx="142.345" cy="188" r="1" stroke="white"/>
<circle cx="133.345" cy="186" r="1" stroke="white"/>
<circle cx="137.345" cy="191" r="1" stroke="white"/>
<circle cx="133.345" cy="193" r="1" stroke="white"/>
<circle cx="122.345" cy="193" r="1" stroke="white"/>
<circle cx="120.345" cy="197" r="1" stroke="white"/>
<circle cx="111.345" cy="188" r="1" stroke="white"/>
<circle cx="107.345" cy="190" r="1" stroke="white"/>
<circle cx="98.3452" cy="182" r="1" stroke="white"/>
<circle cx="100.345" cy="173" r="1" stroke="white"/>
<circle cx="133.345" cy="231" r="1" stroke="white"/>
<circle cx="139.345" cy="224" r="2" stroke="white"/>
<circle cx="143.345" cy="220" r="2" stroke="white"/>
<circle cx="147.345" cy="224" r="2" stroke="white"/>
<circle cx="143.345" cy="228" r="2" stroke="white"/>
<circle cx="147.345" cy="232" r="2" stroke="white"/>
<circle cx="150.345" cy="228" r="2" stroke="white"/>
<path d="M158.345 235C158.345 233.895 157.45 233 156.345 233C155.241 233 154.345 233.895 154.345 235C154.345 236.105 155.241 237 156.345 237" stroke="white"/>
<ellipse cx="154.845" cy="235" rx="2.5" ry="3" stroke="white"/>
<path d="M134.345 222C134.345 220.895 133.45 220 132.345 220C131.241 220 130.345 220.895 130.345 222C130.345 223.105 131.241 224 132.345 224" stroke="white"/>
<ellipse cx="130.845" cy="221" rx="2.5" ry="3" stroke="white"/>
<path d="M141.345 215C141.345 213.895 140.45 213 139.345 213C138.241 213 137.345 213.895 137.345 215C137.345 216.105 138.241 217 139.345 217" stroke="white"/>
<ellipse cx="138.845" cy="214" rx="2.5" ry="3" stroke="white"/>
<path d="M123.345 178.013C122.344 178.277 120.339 179.365 120.336 180.005C120.333 180.645 118.996 181.468 118.327 182" stroke="white"/>
<path d="M121.345 176.013C120.344 176.277 118.339 177.365 118.336 178.005C118.333 178.645 116.996 179.468 116.327 180" stroke="white"/>
<path d="M119.345 175.013C118.344 175.277 116.339 176.365 116.336 177.005C116.333 177.645 114.996 178.468 114.327 179" stroke="white"/>
<path d="M118.345 173.013C117.344 173.277 115.339 174.365 115.336 175.005C115.333 175.645 113.996 176.468 113.327 177" stroke="white"/>
<path d="M116.345 171.013C115.344 171.277 113.339 172.365 113.336 173.005C113.333 173.645 111.996 174.468 111.327 175" stroke="white"/>
<path d="M114.345 170.013C113.344 170.277 111.339 171.365 111.336 172.005C111.333 172.645 109.996 173.468 109.327 174" stroke="white"/>
<path d="M112.345 168.013C111.344 168.277 109.339 169.365 109.336 170.005C109.333 170.645 107.996 171.468 107.327 172" stroke="white"/>
<path d="M110.345 166.013C109.344 166.277 107.339 167.365 107.336 168.005C107.333 168.645 105.996 169.468 105.327 170" stroke="white"/>
<path d="M108.345 165.013C107.344 165.277 105.339 166.365 105.336 167.005C105.333 167.645 103.996 168.468 103.327 169" stroke="white"/>
<path d="M106.345 163.013C105.344 163.277 103.339 164.365 103.336 165.005C103.333 165.645 101.996 166.468 101.327 167" stroke="white"/>
<path d="M104.345 161.013C103.344 161.277 101.339 162.365 101.336 163.005C101.333 163.645 99.9963 164.468 99.3272 165" stroke="white"/>
<path d="M103.345 160.013C102.344 160.277 100.339 161.365 100.336 162.005C100.333 162.645 98.9963 163.468 98.3272 164" stroke="white"/>
<path d="M101.345 158.013C100.344 158.277 98.3391 159.365 98.3362 160.005C98.3333 160.645 96.9963 161.468 96.3272 162" stroke="white"/>
<path d="M99.3452 156.013C98.344 156.277 96.3391 157.365 96.3362 158.005C96.3333 158.645 94.9963 159.468 94.3272 160" stroke="white"/>
<path d="M97.3452 155.013C96.344 155.277 94.3391 156.365 94.3362 157.005C94.3333 157.645 92.9963 158.468 92.3272 159" stroke="white"/>
<path d="M95.3452 153.013C94.344 153.277 92.3391 154.365 92.3362 155.005C92.3333 155.645 90.9963 156.468 90.3272 157" stroke="white"/>
<path d="M154.211 147.002C154.504 147.994 155.651 149.961 156.291 149.942C156.93 149.923 157.792 151.232 158.343 151.883" stroke="white"/>
<path d="M152.211 149.002C152.504 149.994 153.651 151.961 154.291 151.942C154.93 151.923 155.792 153.232 156.343 153.883" stroke="white"/>
<path d="M151.211 151.002C151.504 151.994 152.651 153.961 153.291 153.942C153.93 153.923 154.792 155.232 155.343 155.883" stroke="white"/>
<path d="M149.211 153.002C149.504 153.994 150.651 155.961 151.291 155.942C151.93 155.923 152.792 157.232 153.343 157.883" stroke="white"/>
<path d="M147.211 155.002C147.504 155.994 148.651 157.961 149.291 157.942C149.93 157.923 150.792 159.232 151.343 159.883" stroke="white"/>
<path d="M146.211 157.002C146.504 157.994 147.651 159.961 148.291 159.942C148.93 159.923 149.792 161.232 150.343 161.883" stroke="white"/>
<path d="M144.211 159.002C144.504 159.994 145.651 161.961 146.291 161.942C146.93 161.923 147.792 163.232 148.343 163.883" stroke="white"/>
<path d="M142.211 161.002C142.504 161.994 143.651 163.961 144.291 163.942C144.93 163.923 145.792 165.232 146.343 165.883" stroke="white"/>
<path d="M141.211 163.002C141.504 163.994 142.651 165.961 143.291 165.942C143.93 165.923 144.792 167.232 145.343 167.883" stroke="white"/>
<path d="M139.211 165.002C139.504 165.994 140.651 167.961 141.291 167.942C141.93 167.923 142.792 169.232 143.343 169.883" stroke="white"/>
<path d="M137.211 167.002C137.504 167.994 138.651 169.961 139.291 169.942C139.93 169.923 140.792 171.232 141.343 171.883" stroke="white"/>
<path d="M136.211 169.002C136.504 169.994 137.651 171.961 138.291 171.942C138.93 171.923 139.792 173.232 140.343 173.883" stroke="white"/>
<path d="M134.211 171.002C134.504 171.994 135.651 173.961 136.291 173.942C136.93 173.923 137.792 175.232 138.343 175.883" stroke="white"/>
<path d="M132.211 173.002C132.504 173.994 133.651 175.961 134.291 175.942C134.93 175.923 135.792 177.232 136.343 177.883" stroke="white"/>
<path d="M131.211 175.002C131.504 175.994 132.651 177.961 133.291 177.942C133.93 177.923 134.792 179.232 135.343 179.883" stroke="white"/>
<path d="M129.211 177.002C129.505 177.994 130.651 179.961 131.291 179.942C131.931 179.923 132.793 181.231 133.343 181.882" stroke="white"/>
<path d="M123.346 116.099C124.34 115.813 126.317 114.68 126.304 114.04C126.291 113.4 127.607 112.547 128.262 112.001" stroke="white"/>
<path d="M125.346 118.099C126.34 117.813 128.317 116.68 128.304 116.04C128.291 115.4 129.607 114.547 130.262 114.001" stroke="white"/>
<path d="M127.346 120.099C128.34 119.813 130.317 118.68 130.304 118.04C130.291 117.4 131.607 116.547 132.262 116.001" stroke="white"/>
<path d="M129.346 121.099C130.34 120.813 132.317 119.68 132.304 119.04C132.291 118.4 133.607 117.547 134.262 117.001" stroke="white"/>
<path d="M131.346 123.099C132.34 122.813 134.317 121.68 134.304 121.04C134.291 120.4 135.607 119.547 136.262 119.001" stroke="white"/>
<path d="M133.346 125.099C134.34 124.813 136.317 123.68 136.304 123.04C136.291 122.4 137.607 121.547 138.262 121.001" stroke="white"/>
<path d="M135.346 127.099C136.34 126.813 138.317 125.68 138.304 125.04C138.291 124.4 139.607 123.547 140.262 123.001" stroke="white"/>
<path d="M137.346 128.099C138.34 127.813 140.317 126.68 140.304 126.04C140.291 125.4 141.607 124.547 142.262 124.001" stroke="white"/>
<path d="M139.346 130.099C140.34 129.813 142.317 128.68 142.304 128.04C142.291 127.4 143.607 126.547 144.262 126.001" stroke="white"/>
<path d="M141.346 132.099C142.34 131.813 144.317 130.68 144.304 130.04C144.291 129.4 145.607 128.547 146.262 128.001" stroke="white"/>
<path d="M142.346 134.099C143.34 133.813 145.317 132.68 145.304 132.04C145.291 131.4 146.607 130.547 147.262 130.001" stroke="white"/>
<path d="M144.346 135.099C145.34 134.813 147.317 133.68 147.304 133.04C147.291 132.4 148.607 131.547 149.262 131.001" stroke="white"/>
<path d="M146.346 137.099C147.34 136.813 149.317 135.68 149.304 135.04C149.291 134.4 150.607 133.547 151.262 133.001" stroke="white"/>
<path d="M148.346 139.099C149.34 138.813 151.317 137.68 151.304 137.04C151.291 136.4 152.607 135.547 153.262 135.001" stroke="white"/>
<path d="M150.346 141.099C151.34 140.813 153.317 139.68 153.304 139.04C153.291 138.4 154.607 137.547 155.262 137.001" stroke="white"/>
<path d="M152.346 142.099C153.34 141.812 155.317 140.68 155.304 140.04C155.29 139.4 156.606 138.547 157.262 138.001" stroke="white"/>
<path d="M93.4392 146.999C93.1538 146.005 92.0231 144.029 91.3833 144.044C90.7434 144.058 89.8919 142.743 89.3462 142.088" stroke="white"/>
<path d="M94.4392 144.999C94.1538 144.005 93.0231 142.029 92.3833 142.044C91.7434 142.058 90.8919 140.743 90.3462 140.088" stroke="white"/>
<path d="M96.4392 142.999C96.1538 142.005 95.0231 140.029 94.3833 140.044C93.7434 140.058 92.8919 138.743 92.3462 138.088" stroke="white"/>
<path d="M98.4392 140.999C98.1538 140.005 97.0231 138.029 96.3833 138.044C95.7434 138.058 94.8919 136.743 94.3462 136.088" stroke="white"/>
<path d="M99.4392 138.999C99.1538 138.005 98.0231 136.029 97.3833 136.044C96.7434 136.058 95.8919 134.743 95.3462 134.088" stroke="white"/>
<path d="M101.439 136.999C101.154 136.005 100.023 134.029 99.3833 134.044C98.7434 134.058 97.8919 132.743 97.3462 132.088" stroke="white"/>
<path d="M103.439 134.999C103.154 134.005 102.023 132.029 101.383 132.044C100.743 132.058 99.8919 130.743 99.3462 130.088" stroke="white"/>
<path d="M104.439 132.999C104.154 132.005 103.023 130.029 102.383 130.044C101.743 130.058 100.892 128.743 100.346 128.088" stroke="white"/>
<path d="M106.439 130.999C106.154 130.005 105.023 128.029 104.383 128.044C103.743 128.058 102.892 126.743 102.346 126.088" stroke="white"/>
<path d="M108.439 128.999C108.154 128.005 107.023 126.029 106.383 126.044C105.743 126.058 104.892 124.743 104.346 124.088" stroke="white"/>
<path d="M110.439 126.999C110.154 126.005 109.023 124.029 108.383 124.044C107.743 124.058 106.892 122.743 106.346 122.088" stroke="white"/>
<path d="M111.439 124.999C111.154 124.005 110.023 122.029 109.383 122.044C108.743 122.058 107.892 120.743 107.346 120.088" stroke="white"/>
<path d="M113.439 122.999C113.154 122.005 112.023 120.029 111.383 120.044C110.743 120.058 109.892 118.743 109.346 118.088" stroke="white"/>
<path d="M115.439 120.999C115.154 120.005 114.023 118.029 113.383 118.044C112.743 118.058 111.892 116.743 111.346 116.088" stroke="white"/>
<path d="M116.439 118.999C116.154 118.005 115.023 116.029 114.383 116.044C113.743 116.058 112.892 114.743 112.346 114.088" stroke="white"/>
<path d="M118.439 116.999C118.153 116.005 117.023 114.03 116.383 114.044C115.743 114.058 114.892 112.743 114.346 112.088" stroke="white"/>
<path d="M187.345 164C188.012 164.333 189.345 165.2 189.345 166" stroke="white"/>
<path d="M185.345 166C186.012 166.333 187.345 167.2 187.345 168" stroke="white"/>
<path d="M183.345 168C184.012 168.333 185.345 169.2 185.345 170" stroke="white"/>
<path d="M181.345 170C182.012 170.333 183.345 171.2 183.345 172" stroke="white"/>
</g>
</svg>
