<svg width="30" height="30" viewBox="0 0 30 30" fill="none" xmlns="http://www.w3.org/2000/svg">
<path fill-rule="evenodd" clip-rule="evenodd" d="M20 12.5C23.9425 12.5 27.5 15.2325 27.5 19.0163C27.5 21.1362 26.35 22.9575 24.675 24.1162C24.62 24.4475 24.665 24.7812 24.665 25.115C24.6667 25.4141 24.5495 25.7017 24.3393 25.9145C24.129 26.1274 23.8429 26.248 23.5437 26.25C22.6937 26.25 21.9062 25.97 21.24 25.4437C20.8293 25.5027 20.4149 25.5324 20 25.5325C16.0575 25.5325 12.5 22.8 12.5 19.0163C12.5 15.2325 16.0575 12.5 20 12.5ZM11.875 3.75C16.5962 3.75 20.8112 6.91875 21.2175 11.3275C20.8136 11.2769 20.407 11.251 20 11.25C15.5837 11.25 11.25 14.3412 11.25 19.0112C11.25 19.4537 11.2875 19.8817 11.3625 20.295C10.9749 20.2758 10.5885 20.2366 10.205 20.1775C9.3675 20.8638 8.40125 21.25 7.3175 21.25C6.67 21.25 6.14625 20.7075 6.14625 20.0375L6.15125 19.7913L6.1725 19.295C6.18456 19.0472 6.16141 18.7988 6.10375 18.5575C3.9625 17.0837 2.5 14.7425 2.5 12.03C2.5 7.25875 6.90625 3.75 11.875 3.75ZM17.5 16.25C17.1685 16.25 16.8505 16.3817 16.6161 16.6161C16.3817 16.8505 16.25 17.1685 16.25 17.5C16.25 17.8315 16.3817 18.1495 16.6161 18.3839C16.8505 18.6183 17.1685 18.75 17.5 18.75C17.8315 18.75 18.1495 18.6183 18.3839 18.3839C18.6183 18.1495 18.75 17.8315 18.75 17.5C18.75 17.1685 18.6183 16.8505 18.3839 16.6161C18.1495 16.3817 17.8315 16.25 17.5 16.25ZM22.5 16.25C22.1685 16.25 21.8505 16.3817 21.6161 16.6161C21.3817 16.8505 21.25 17.1685 21.25 17.5C21.25 17.8315 21.3817 18.1495 21.6161 18.3839C21.8505 18.6183 22.1685 18.75 22.5 18.75C22.8315 18.75 23.1495 18.6183 23.3839 18.3839C23.6183 18.1495 23.75 17.8315 23.75 17.5C23.75 17.1685 23.6183 16.8505 23.3839 16.6161C23.1495 16.3817 22.8315 16.25 22.5 16.25ZM8.75 7.5C8.41848 7.5 8.10054 7.6317 7.86612 7.86612C7.6317 8.10054 7.5 8.41848 7.5 8.75C7.5 9.08152 7.6317 9.39946 7.86612 9.63388C8.10054 9.8683 8.41848 10 8.75 10C9.08152 10 9.39946 9.8683 9.63388 9.63388C9.8683 9.39946 10 9.08152 10 8.75C10 8.41848 9.8683 8.10054 9.63388 7.86612C9.39946 7.6317 9.08152 7.5 8.75 7.5ZM15 7.5C14.6685 7.5 14.3505 7.6317 14.1161 7.86612C13.8817 8.10054 13.75 8.41848 13.75 8.75C13.75 9.08152 13.8817 9.39946 14.1161 9.63388C14.3505 9.8683 14.6685 10 15 10C15.3315 10 15.6495 9.8683 15.8839 9.63388C16.1183 9.39946 16.25 9.08152 16.25 8.75C16.25 8.41848 16.1183 8.10054 15.8839 7.86612C15.6495 7.6317 15.3315 7.5 15 7.5Z" fill="black"/>
</svg>
