<svg width="31" height="31" viewBox="0 0 31 31" fill="none" xmlns="http://www.w3.org/2000/svg">
<path d="M15.5002 2.58337C8.37016 2.58337 2.5835 8.37004 2.5835 15.5C2.5835 22.63 8.37016 28.4167 15.5002 28.4167C22.6302 28.4167 28.4168 22.63 28.4168 15.5C28.4168 8.37004 22.6302 2.58337 15.5002 2.58337ZM21.4935 11.3667C21.2997 13.4075 20.4602 18.3675 20.0339 20.6538C19.8531 21.6225 19.4914 21.9455 19.1556 21.9842C18.4064 22.0488 17.8381 21.4934 17.1147 21.0155C15.9781 20.2663 15.3322 19.8013 14.2343 19.078C12.9556 18.2384 13.7822 17.7734 14.5185 17.0242C14.7122 16.8305 18.0189 13.8209 18.0835 13.5496C18.0925 13.5085 18.0913 13.4659 18.08 13.4254C18.0688 13.3849 18.0478 13.3477 18.0189 13.3171C17.9414 13.2525 17.8381 13.2784 17.7477 13.2913C17.6314 13.3171 15.8231 14.5184 12.2968 16.895C11.7802 17.2438 11.3152 17.4246 10.9018 17.4117C10.4368 17.3988 9.5585 17.1534 8.89975 16.9338C8.086 16.6755 7.45308 16.5334 7.50475 16.0813C7.53058 15.8488 7.8535 15.6163 8.46058 15.3709C12.2322 13.7305 14.7381 12.6455 15.991 12.1288C19.5818 10.6305 20.3181 10.3721 20.8089 10.3721C20.9122 10.3721 21.1577 10.398 21.3127 10.5271C21.4418 10.6305 21.4806 10.7725 21.4935 10.8759C21.4806 10.9534 21.5064 11.1859 21.4935 11.3667Z" fill="black"/>
</svg>
