<svg xmlns="http://www.w3.org/2000/svg" viewBox="0 0 24 24" width="24" height="24"><path fill="#09B83E" d="M8.25 16.5c.345 0 .685-.02 1.02-.06.27-.4.595-.755.968-1.06-.52.078-1.05.12-1.588.12-3.148 0-5.7-2.104-5.7-4.7 0-2.596 2.552-4.7 5.7-4.7 3.148 0 5.7 2.104 5.7 4.7 0 .54-.11 1.055-.316 1.542.427.185.823.435 1.178.743.273-.727.438-1.5.438-2.285 0-3.37-3.134-6.1-7-6.1S1.25 6.13 1.25 9.5c0 3.37 3.134 6.1 7 6.1zm10.5 5.4c.59 0 1.16-.075 1.7-.22a6.388 6.388 0 0 0 1.49.563c.126.027.243-.03.29-.142a.258.258 0 0 0-.022-.24l-.872-1.28c1.082-.93 1.764-2.213 1.764-3.64 0-2.818-2.612-5.1-5.836-5.1-3.224 0-5.836 2.282-5.836 5.1 0 2.818 2.612 5.1 5.836 5.1z"/></svg>
