<svg xmlns="http://www.w3.org/2000/svg" viewBox="0 0 24 24" width="24" height="24"><path fill="#25D366" d="M12.012 2c-5.506 0-9.989 4.478-9.99 9.984a9.96 9.96 0 0 0 1.333 4.982L2 22l5.202-1.362a9.962 9.962 0 0 0 4.808 1.226h.003c5.502 0 9.99-4.479 9.993-9.986a9.963 9.963 0 0 0-2.93-7.065A9.919 9.919 0 0 0 12.012 2zm5.727 14.004c-.236.667-1.171 1.285-1.621 1.336-.45.05-1.012.084-2.71-.623-2.173-.902-3.518-3.111-3.627-3.257-.107-.146-.883-1.176-.883-2.244 0-1.068.558-1.593.755-1.808.197-.215.429-.269.572-.269.143 0 .286.002.411.008.131.006.307-.048.483.376.182.438.625 1.524.679 1.634.054.109.09.237.018.382-.072.145-.107.25-.215.376-.107.125-.224.279-.322.382-.107.114-.219.238-.094.45.125.212.556.915 1.192 1.482.818.729 1.506.953 1.72.107.214-.094.947-.11.608-.224.125-.138.411-.322.608-.182.196.14.331.424.37.525.04.1.04.577.013.882c-.027.305-.125.753-.361 1.42z"/></svg>
